<svg width="40" height="41" viewBox="0 0 40 41" fill="none" xmlns="http://www.w3.org/2000/svg">
<g clip-path="url(#clip0_786_654)">
<path d="M39.1667 32.4334C39.022 32.267 38.8456 32.131 38.6478 32.0332C38.4501 31.9355 38.2349 31.878 38.0147 31.864C37.7946 31.8501 37.5739 31.88 37.3654 31.952C37.1569 32.024 36.9647 32.1366 36.8001 32.2834C34.8924 33.9601 32.6669 35.2359 30.256 36.0347C27.8451 36.8336 25.2982 37.1392 22.7667 36.9334C19.7419 36.6584 16.9493 35.1961 15.0001 32.8668L22.4667 25.5001C22.6214 25.3454 22.8313 25.2585 23.0501 25.2585C23.2689 25.2585 23.4787 25.3454 23.6334 25.5001C23.7881 25.6548 23.875 25.8646 23.875 26.0834C23.875 26.3022 23.7881 26.5121 23.6334 26.6668L18.6334 31.6668C18.5739 31.7429 18.5416 31.8368 18.5416 31.9334C18.5416 32.0301 18.5739 32.1239 18.6334 32.2001C18.719 32.3334 18.8197 32.4565 18.9334 32.5668C19.2422 32.874 19.6279 33.0928 20.0501 33.2001C20.4729 33.3175 20.9193 33.3207 21.3438 33.2095C21.7684 33.0982 22.1558 32.8765 22.4667 32.5668L26.0001 29.0334C26.698 28.3368 27.2517 27.5094 27.6295 26.5985C28.0073 25.6877 28.2018 24.7112 28.2018 23.7251C28.2018 22.739 28.0073 21.7626 27.6295 20.8517C27.2517 19.9408 26.698 19.1134 26.0001 18.4168L25.4501 17.8668C25.3803 17.8019 25.3349 17.7151 25.3214 17.6208C25.3079 17.5265 25.3271 17.4304 25.3758 17.3486C25.4245 17.2667 25.4998 17.204 25.5892 17.1709C25.6785 17.1379 25.7765 17.1364 25.8667 17.1668C27.2882 17.5876 28.8093 17.5226 30.1897 16.9822C31.5701 16.4417 32.731 15.4566 33.4888 14.1825C34.2467 12.9085 34.5583 11.4181 34.3743 9.94719C34.1904 8.47622 33.5214 7.10852 32.4732 6.0603C31.425 5.01207 30.0573 4.34312 28.5863 4.15919C27.1154 3.97526 25.6251 4.28685 24.351 5.0447C23.0769 5.80255 22.0918 6.96342 21.5514 8.34381C21.0109 9.72419 20.9459 11.2453 21.3667 12.6668C21.3971 12.7571 21.3956 12.855 21.3626 12.9444C21.3295 13.0337 21.2668 13.109 21.1849 13.1577C21.1031 13.2064 21.007 13.2256 20.9127 13.2121C20.8184 13.1986 20.7316 13.1532 20.6667 13.0834L20.0001 12.5834C19.3034 11.8855 18.476 11.3318 17.5652 10.954C16.6543 10.5762 15.6778 10.3817 14.6917 10.3817C13.7056 10.3817 12.7292 10.5762 11.8183 10.954C10.9075 11.3318 10.08 11.8855 9.3834 12.5834L5.86674 16.1168C5.55843 16.4288 5.33643 16.8156 5.22249 17.2392C5.10855 17.6629 5.10657 18.1088 5.21674 18.5334C5.33731 18.9539 5.5607 19.3376 5.86674 19.6501C5.98284 19.7642 6.11143 19.8648 6.25007 19.9501C6.32229 20.0112 6.41382 20.0447 6.5084 20.0447C6.60299 20.0447 6.69452 20.0112 6.76674 19.9501L11.7667 14.9501C11.8421 14.8634 11.9345 14.7933 12.0382 14.744C12.142 14.6948 12.2548 14.6675 12.3695 14.6639C12.4843 14.6603 12.5986 14.6805 12.7052 14.7231C12.8118 14.7658 12.9085 14.83 12.9891 14.9118C13.0697 14.9935 13.1325 15.0911 13.1737 15.1983C13.2148 15.3055 13.2333 15.4201 13.2281 15.5348C13.2229 15.6495 13.194 15.7619 13.1433 15.8649C13.0926 15.9679 13.0211 16.0593 12.9334 16.1334L1.10007 27.8001C0.631522 28.2709 0.369172 28.9085 0.370734 29.5727C0.372297 30.2369 0.637645 30.8732 1.1084 31.3418C1.57916 31.8103 2.21677 32.0727 2.88096 32.0711C3.54515 32.0695 4.18152 31.8042 4.65007 31.3334L8.80007 27.3334C8.94948 27.159 9.13335 27.0173 9.34012 26.9172C9.5469 26.8172 9.77212 26.761 10.0016 26.7521C10.2312 26.7432 10.4601 26.7819 10.6739 26.8657C10.8878 26.9495 11.0821 27.0766 11.2445 27.239C11.4069 27.4014 11.534 27.5957 11.6178 27.8096C11.7016 28.0234 11.7403 28.2523 11.7314 28.4819C11.7225 28.7114 11.6663 28.9366 11.5663 29.1434C11.4662 29.3502 11.3245 29.534 11.1501 29.6834L7.05007 33.8334C6.66245 34.3153 6.4672 34.9238 6.50204 35.5412C6.53687 36.1587 6.79933 36.7413 7.2387 37.1765C7.67806 37.6117 8.26315 37.8687 8.8809 37.8976C9.49865 37.9266 10.1052 37.7256 10.5834 37.3334L12.6834 35.2334C14.1638 36.8882 15.9853 38.2024 18.0223 39.0857C20.0594 39.969 22.2637 40.4004 24.4834 40.3501C29.8349 40.278 34.9864 38.3049 39.0167 34.7834C39.3479 34.4915 39.5497 34.08 39.5778 33.6395C39.6059 33.1989 39.4581 32.7651 39.1667 32.4334ZM30.5334 7.95011C31.1023 8.51877 31.4898 9.24338 31.6468 10.0323C31.8039 10.8212 31.7234 11.6389 31.4157 12.3821C31.1079 13.1253 30.5867 13.7605 29.9179 14.2074C29.2491 14.6544 28.4628 14.8929 27.6584 14.8929C26.854 14.8929 26.0677 14.6544 25.3989 14.2074C24.7301 13.7605 24.2089 13.1253 23.9011 12.3821C23.5934 11.6389 23.513 10.8212 23.67 10.0323C23.827 9.24338 24.2145 8.51877 24.7834 7.95011C25.546 7.1878 26.5801 6.75957 27.6584 6.75957C28.7367 6.75957 29.7708 7.1878 30.5334 7.95011ZM16.4834 17.2834C16.6392 17.1307 16.8486 17.0452 17.0667 17.0452C17.2849 17.0452 17.4943 17.1307 17.6501 17.2834L21.1834 20.8334C21.2631 20.9083 21.3267 20.9986 21.3701 21.0989C21.4135 21.1993 21.4359 21.3074 21.4359 21.4168C21.4359 21.5261 21.4135 21.6343 21.3701 21.7346C21.3267 21.8349 21.2631 21.9253 21.1834 22.0001L17.6501 25.5001C17.5753 25.5798 17.4849 25.6434 17.3846 25.6868C17.2842 25.7302 17.1761 25.7526 17.0667 25.7526C16.9574 25.7526 16.8492 25.7302 16.7489 25.6868C16.6486 25.6434 16.5582 25.5798 16.4834 25.5001L12.9334 22.0001C12.7807 21.8443 12.6952 21.6349 12.6952 21.4168C12.6952 21.1986 12.7807 20.9892 12.9334 20.8334L16.4834 17.2834Z" fill="#D3D3D3"/>
<path d="M18.3333 8.5501C18.4403 8.59277 18.5596 8.59277 18.6667 8.5501C18.7691 8.49075 18.8462 8.39586 18.8833 8.28344C19.2972 6.79933 20.0831 5.44547 21.1667 4.3501C22.1125 3.40489 23.2488 2.67197 24.5 2.2001C24.5727 2.17246 24.6362 2.12503 24.6833 2.06317C24.7304 2.00132 24.7593 1.92751 24.7666 1.8501C24.778 1.76903 24.7631 1.68646 24.7241 1.61449C24.6851 1.54251 24.6241 1.4849 24.55 1.4501C23.2611 0.759714 21.7844 0.502038 20.3379 0.715115C18.8914 0.928191 17.5517 1.60073 16.5167 2.63343L11.6667 7.53343C11.6008 7.59791 11.5582 7.68239 11.5455 7.77367C11.5328 7.86494 11.5507 7.95785 11.5964 8.03786C11.6421 8.11787 11.7131 8.18047 11.7982 8.21586C11.8833 8.25125 11.9777 8.25743 12.0667 8.23343C14.1354 7.66393 16.3325 7.77495 18.3333 8.5501Z" fill="#D3D3D3"/>
<path d="M34.1333 17.2999C33.0473 18.398 31.6993 19.201 30.2166 19.6332C30.1598 19.6492 30.1068 19.6767 30.0609 19.714C30.0151 19.7512 29.9773 19.7975 29.95 19.8499C29.9073 19.9569 29.9073 20.0762 29.95 20.1832C30.7178 22.174 30.8288 24.3582 30.2666 26.4165C30.2426 26.5055 30.2488 26.5999 30.2842 26.685C30.3196 26.7701 30.3822 26.8411 30.4622 26.8868C30.5422 26.9325 30.6351 26.9504 30.7264 26.9377C30.8177 26.925 30.9022 26.8824 30.9666 26.8165L35.8666 21.9165C36.9079 20.8758 37.5842 19.526 37.7945 18.0689C38.0048 16.6119 37.7378 15.1259 37.0333 13.8332C36.9992 13.7627 36.9459 13.7033 36.8796 13.6618C36.8133 13.6202 36.7366 13.5981 36.6583 13.5981C36.58 13.5981 36.5033 13.6202 36.437 13.6618C36.3707 13.7033 36.3174 13.7627 36.2833 13.8332C35.8205 15.0889 35.0864 16.227 34.1333 17.1665V17.2999Z" fill="#D3D3D3"/>
</g>
<defs>
<clipPath id="clip0_786_654">
<rect width="40" height="40" fill="white" transform="translate(0 0.5)"/>
</clipPath>
</defs>
</svg>
