<svg width="49" height="43" viewBox="0 0 49 43" fill="none" xmlns="http://www.w3.org/2000/svg">
<path d="M30.246 23.6406C29.5457 23.8635 28.7975 23.8892 28.0835 23.7148C27.3695 23.5403 26.7174 23.1726 26.1987 22.6518C25.68 22.1311 25.3148 21.4775 25.1433 20.7628C24.9717 20.0482 25.0003 19.3 25.226 18.6006C26.846 13.5006 27.886 12.4806 28.326 12.0406C28.3821 11.9791 28.4237 11.9059 28.4479 11.8264C28.4721 11.7468 28.4783 11.6628 28.466 11.5806C28.4556 11.5064 28.4285 11.4356 28.387 11.3733C28.3455 11.311 28.2905 11.2588 28.226 11.2206C26.2091 10.3052 24.021 9.82798 21.806 9.82059C17.5626 9.82059 13.4929 11.5063 10.4923 14.5069C7.49176 17.5075 5.80605 21.5771 5.80605 25.8206C5.77562 26.3868 5.77562 26.9543 5.80605 27.5206C5.81089 27.5933 5.80098 27.6662 5.77693 27.7349C5.75287 27.8036 5.71515 27.8668 5.66605 27.9206C3.82699 30.2631 2.3443 32.8645 1.26605 35.6406C0.807574 36.5433 0.613156 37.5572 0.705144 38.5655C0.797131 39.5738 1.17179 40.5357 1.78605 41.3406C2.15799 41.6958 2.5975 41.9726 3.07848 42.1547C3.55947 42.3368 4.07213 42.4204 4.58605 42.4006C7.47411 42.0691 10.2287 41.0017 12.586 39.3006C12.6636 39.2506 12.7538 39.2241 12.846 39.2241C12.9383 39.2241 13.0285 39.2506 13.106 39.3006C15.5253 40.868 18.323 41.7528 21.2036 41.8613C24.0842 41.9699 26.9406 41.2982 29.471 39.9173C32.0013 38.5363 34.1116 36.4975 35.5787 34.0161C37.0459 31.5348 37.8154 28.7032 37.806 25.8206C37.8007 24.2626 37.5717 22.7135 37.126 21.2206C37.0997 21.1436 37.0549 21.0742 36.9957 21.0185C36.9364 20.9627 36.8645 20.9222 36.786 20.9006C36.7192 20.862 36.6433 20.8416 36.566 20.8416C36.4888 20.8416 36.4129 20.862 36.346 20.9006C34.4558 22.104 32.4011 23.0269 30.246 23.6406ZM19.906 24.7206C20.1689 24.4697 20.5139 24.3227 20.877 24.307C21.2401 24.2914 21.5965 24.408 21.88 24.6353C22.1635 24.8626 22.3549 25.1852 22.4185 25.5429C22.4822 25.9007 22.4138 26.2694 22.226 26.5806C14.386 34.0006 8.04605 37.7406 5.50605 38.3406C5.42265 38.3663 5.33383 38.3687 5.24913 38.3477C5.16444 38.3267 5.08708 38.283 5.02538 38.2213C4.96368 38.1595 4.91996 38.0822 4.89893 37.9975C4.87791 37.9128 4.88037 37.824 4.90605 37.7406C5.14709 36.8226 5.49619 35.9364 5.94605 35.1006C6.20605 34.6006 6.50605 34.0406 6.86605 33.4206C6.9165 33.3528 6.98333 33.2989 7.06028 33.2639C7.13722 33.2289 7.22178 33.214 7.30605 33.2206C7.39353 33.2195 7.47951 33.2434 7.55391 33.2894C7.6283 33.3355 7.68801 33.4018 7.72605 33.4806C7.7558 33.5398 7.79801 33.592 7.84979 33.6334C7.90157 33.6748 7.9617 33.7046 8.02605 33.7206C8.15636 33.7607 8.29573 33.7607 8.42605 33.7206C12.5415 31.1085 16.3871 28.0936 19.906 24.7206Z" fill="#BFBFBF"/>
<path d="M35.566 16.281C35.561 15.4865 35.2452 14.7255 34.6861 14.161C34.1115 13.6224 33.3535 13.3228 32.5661 13.3228C31.7786 13.3228 31.0206 13.6224 30.446 14.161C29.4052 15.8272 28.604 17.6315 28.0661 19.521C28.0126 19.6986 28.0085 19.8874 28.0543 20.0671C28.1001 20.2468 28.1941 20.4107 28.3261 20.541C28.4554 20.6678 28.6167 20.7571 28.7928 20.7994C28.969 20.8417 29.1533 20.8353 29.3261 20.781C31.2162 20.2541 33.0212 19.4594 34.6861 18.421C35.2464 17.8491 35.562 17.0816 35.566 16.281Z" fill="url(#paint0_linear_905_851)"/>
<path d="M46.806 0.20084L43.686 1.54084C42.9534 1.87171 42.2783 2.31731 41.686 2.86084L39.366 5.22084C38.0569 4.87988 36.6832 4.87144 35.3699 5.19626C34.0567 5.52109 32.8453 6.1689 31.846 7.08084L31.146 7.78084C30.9615 7.97114 30.8584 8.22579 30.8584 8.49084C30.8584 8.75589 30.9615 9.01054 31.146 9.20084L39.626 17.6808C39.8168 17.8723 40.0758 17.9802 40.346 17.9808C40.4768 17.9801 40.6062 17.9531 40.7264 17.9016C40.8466 17.8501 40.9553 17.775 41.046 17.6808L41.746 16.9808C42.6642 15.9895 43.3164 14.7818 43.6416 13.4703C43.9669 12.1588 43.9546 10.7863 43.606 9.48084L46.006 7.08084C46.5503 6.49322 46.99 5.81679 47.306 5.08084L48.646 1.96084C48.7863 1.70381 48.8424 1.40928 48.8066 1.11868C48.7707 0.828076 48.6446 0.556038 48.446 0.34084C48.2225 0.147307 47.9434 0.0295227 47.6488 0.00437273C47.3542 -0.0207773 47.0592 0.0479983 46.806 0.20084Z" fill="url(#paint1_linear_905_851)"/>
<defs>
<linearGradient id="paint0_linear_905_851" x1="29.0101" y1="13.4009" x2="35.9481" y2="14.0838" gradientUnits="userSpaceOnUse">
<stop stop-color="#FF8F27"/>
<stop offset="1" stop-color="#BC5A00"/>
</linearGradient>
<linearGradient id="paint1_linear_905_851" x1="33.209" y1="0.186607" x2="49.7288" y2="1.80206" gradientUnits="userSpaceOnUse">
<stop stop-color="#FF8F27"/>
<stop offset="1" stop-color="#BC5A00"/>
</linearGradient>
</defs>
</svg>
