<svg width="16" height="16" viewBox="0 0 16 16" fill="none" xmlns="http://www.w3.org/2000/svg">
<g clip-path="url(#clip0_838_1015)">
<path d="M16.0001 8C16.0032 6.57385 15.6208 5.17337 14.8934 3.94667C14.2436 2.83159 13.3337 1.89027 12.2414 1.20303C11.149 0.515797 9.90654 0.103045 8.62009 0L8.23342 0H7.80009H7.60009H7.40675C6.29261 0.0848749 5.2086 0.402201 4.22457 0.931535C3.24054 1.46087 2.3783 2.19047 1.69342 3.07333C0.39132 4.73779 -0.199308 6.84984 0.0505072 8.94828C0.300322 11.0467 1.37028 12.9611 3.02675 14.2733C4.2192 15.2151 5.65521 15.7979 7.16675 15.9533L7.33342 16H8.66675H8.82008C10.3903 15.8369 11.8771 15.213 13.0934 14.2067C14.0074 13.4521 14.7424 12.5038 15.2451 11.4304C15.7477 10.357 16.0056 9.18527 16.0001 8ZM2.13342 11.1667C2.31023 11.1667 2.4798 11.0964 2.60482 10.9714C2.72985 10.8464 2.80009 10.6768 2.80009 10.5C2.80009 10.3232 2.72985 10.1536 2.60482 10.0286C2.4798 9.90357 2.31023 9.83333 2.13342 9.83333C2.03713 9.83333 1.94197 9.85418 1.85451 9.89446C1.76704 9.93474 1.68934 9.99349 1.62675 10.0667C1.21765 8.80244 1.19213 7.44538 1.55342 6.16667C1.61188 6.26791 1.69593 6.35201 1.79715 6.41051C1.89837 6.46902 2.0132 6.49988 2.13011 6.49999C2.24702 6.50011 2.36191 6.46948 2.46324 6.41117C2.56458 6.35287 2.6488 6.26894 2.70745 6.16781C2.76611 6.06667 2.79714 5.9519 2.79743 5.83498C2.79772 5.71807 2.76726 5.60314 2.70911 5.50172C2.65095 5.4003 2.56715 5.31595 2.46611 5.25714C2.36506 5.19833 2.25033 5.16713 2.13342 5.16667C2.05836 5.16752 1.98398 5.18104 1.91342 5.20667C2.28915 4.41586 2.81698 3.70681 3.46675 3.12C6.99342 3.5 6.49342 5.64 10.3934 5.64C11.5623 5.50811 12.6944 5.15037 13.7268 4.58667C14.3171 5.57604 14.6409 6.70151 14.6668 7.85333C14.5792 7.84239 14.4904 7.8488 14.4053 7.87219C14.3202 7.89558 14.2406 7.9355 14.1709 7.98967C14.0303 8.09907 13.9389 8.25986 13.9168 8.43667C13.8947 8.61348 13.9437 8.79183 14.0531 8.93248C14.1625 9.07313 14.3233 9.16457 14.5001 9.18667H14.5668C14.3332 10.4874 13.7182 11.6894 12.8001 12.64C12.7505 12.4889 12.6485 12.3606 12.5125 12.2781C12.3766 12.1957 12.2157 12.1645 12.0588 12.1902C11.9019 12.216 11.7593 12.297 11.6569 12.4186C11.5545 12.5401 11.4988 12.6943 11.5001 12.8533C11.5009 12.9235 11.5121 12.9931 11.5334 13.06C10.9482 12.8247 10.3373 12.6591 9.71342 12.5667C9.79123 12.4552 9.8331 12.3226 9.83342 12.1867C9.83342 12.0099 9.76318 11.8403 9.63816 11.7153C9.51313 11.5902 9.34356 11.52 9.16675 11.52C8.98994 11.52 8.82037 11.5902 8.69535 11.7153C8.57032 11.8403 8.50008 12.0099 8.50008 12.1867C8.4993 12.279 8.51984 12.3702 8.56009 12.4533H8.10675C7.27072 12.4479 6.43738 12.5487 5.62675 12.7533C5.65313 12.6807 5.66666 12.604 5.66675 12.5267C5.67445 12.4081 5.65034 12.2897 5.5969 12.1836C5.54347 12.0775 5.46266 11.9876 5.36284 11.9232C5.26301 11.8588 5.1478 11.8223 5.02911 11.8174C4.91042 11.8124 4.79258 11.8393 4.68776 11.8952C4.58295 11.9511 4.49497 12.034 4.43294 12.1353C4.37091 12.2366 4.33707 12.3527 4.33493 12.4714C4.33279 12.5902 4.36242 12.7074 4.42076 12.8109C4.47909 12.9143 4.56402 13.0004 4.66675 13.06C4.4603 13.1465 4.25986 13.2468 4.06675 13.36C3.2687 12.7801 2.60854 12.0312 2.13342 11.1667Z" fill="#D3D3D3"/>
<path d="M12.1667 7.99996C12.2985 7.99996 12.4274 7.96086 12.537 7.88761C12.6467 7.81435 12.7321 7.71023 12.7826 7.58842C12.833 7.4666 12.8462 7.33255 12.8205 7.20323C12.7948 7.07391 12.7313 6.95512 12.6381 6.86189C12.5448 6.76865 12.426 6.70516 12.2967 6.67944C12.1674 6.65371 12.0334 6.66691 11.9115 6.71737C11.7897 6.76783 11.6856 6.85328 11.6124 6.96291C11.5391 7.07255 11.5 7.20144 11.5 7.33329C11.5 7.5101 11.5702 7.67967 11.6953 7.8047C11.8203 7.92972 11.9899 7.99996 12.1667 7.99996Z" fill="#D3D3D3"/>
<path d="M9.50016 9.99996C9.63202 9.99996 9.76091 9.96086 9.87054 9.88761C9.98018 9.81435 10.0656 9.71023 10.1161 9.58842C10.1665 9.4666 10.1797 9.33255 10.154 9.20323C10.1283 9.07391 10.0648 8.95512 9.97157 8.86189C9.87833 8.76865 9.75954 8.70516 9.63022 8.67944C9.5009 8.65371 9.36686 8.66691 9.24504 8.71737C9.12322 8.76783 9.0191 8.85328 8.94585 8.96291C8.8726 9.07255 8.8335 9.20144 8.8335 9.33329C8.8335 9.5101 8.90373 9.67967 9.02876 9.8047C9.15378 9.92972 9.32335 9.99996 9.50016 9.99996Z" fill="#D3D3D3"/>
<path d="M12.3334 9.33337C12.2016 9.33337 12.0727 9.37247 11.963 9.44573C11.8534 9.51898 11.768 9.6231 11.7175 9.74492C11.667 9.86674 11.6538 10.0008 11.6796 10.1301C11.7053 10.2594 11.7688 10.3782 11.862 10.4714C11.9552 10.5647 12.074 10.6282 12.2034 10.6539C12.3327 10.6796 12.4667 10.6664 12.5885 10.616C12.7104 10.5655 12.8145 10.4801 12.8877 10.3704C12.961 10.2608 13.0001 10.1319 13.0001 10C13.0001 9.82323 12.9298 9.65366 12.8048 9.52864C12.6798 9.40361 12.5102 9.33337 12.3334 9.33337Z" fill="#D3D3D3"/>
<path d="M6.50016 10.8333C6.63202 10.8333 6.76091 10.7942 6.87054 10.721C6.98018 10.6477 7.06562 10.5436 7.11608 10.4218C7.16654 10.3 7.17974 10.1659 7.15402 10.0366C7.1283 9.90729 7.0648 9.7885 6.97157 9.69526C6.87833 9.60203 6.75954 9.53853 6.63022 9.51281C6.5009 9.48709 6.36686 9.50029 6.24504 9.55075C6.12322 9.60121 6.0191 9.68665 5.94585 9.79629C5.8726 9.90592 5.8335 10.0348 5.8335 10.1667C5.8335 10.3435 5.90373 10.513 6.02876 10.6381C6.15378 10.7631 6.32335 10.8333 6.50016 10.8333Z" fill="#D3D3D3"/>
</g>
<defs>
<clipPath id="clip0_838_1015">
<rect width="16" height="16" fill="white"/>
</clipPath>
</defs>
</svg>
