<svg width="49" height="48" viewBox="0 0 49 48" fill="none" xmlns="http://www.w3.org/2000/svg">
<g clip-path="url(#clip0_786_682)">
<path d="M31.0332 20.5399C30.5263 20.5387 30.0251 20.4333 29.5607 20.2303C29.0962 20.0273 28.6784 19.7311 28.3332 19.3599L23.7732 14.4599C23.7107 14.3931 23.631 14.3446 23.5428 14.3199C23.4546 14.2953 23.3614 14.2952 23.2732 14.3199C23.1855 14.3401 23.1052 14.3846 23.0416 14.4483C22.9779 14.5119 22.9334 14.5922 22.9132 14.6799L21.0332 22.6799C20.9971 22.8413 20.9979 23.0088 21.0355 23.1699C21.0731 23.3309 21.1465 23.4815 21.2503 23.6102C21.354 23.739 21.4855 23.8427 21.6349 23.9136C21.7844 23.9846 21.9478 24.0209 22.1132 24.0199H38.1132C38.3671 24.0204 38.6134 23.9331 38.8103 23.7727C39.0071 23.6123 39.1424 23.3887 39.1932 23.1399L41.0132 15.4599C41.0266 15.3728 41.0167 15.2837 40.9845 15.2016C40.9523 15.1195 40.899 15.0474 40.8299 14.9926C40.7609 14.9378 40.6786 14.9022 40.5914 14.8894C40.5041 14.8766 40.4151 14.8872 40.3332 14.9199L33.1732 19.8799C32.5435 20.3122 31.797 20.5424 31.0332 20.5399Z" fill="url(#paint0_linear_786_682)"/>
<path d="M31.4532 17.4195L37.8932 12.8995C37.9839 12.8419 38.0516 12.7543 38.0844 12.652C38.1173 12.5498 38.1134 12.4392 38.0732 12.3395C38.0432 12.241 37.9823 12.1547 37.8994 12.0935C37.8166 12.0323 37.7162 11.9993 37.6132 11.9995H26.7132C26.6157 11.9992 26.5201 12.0274 26.4384 12.0807C26.3566 12.134 26.2923 12.2101 26.2532 12.2995C26.2016 12.3801 26.1741 12.4738 26.1741 12.5695C26.1741 12.6652 26.2016 12.7589 26.2532 12.8395L30.4132 17.3195C30.4734 17.3966 30.5486 17.4605 30.6344 17.5076C30.7201 17.5546 30.8144 17.5836 30.9118 17.593C31.0091 17.6024 31.1073 17.5918 31.2003 17.562C31.2934 17.5321 31.3795 17.4837 31.4532 17.4195Z" fill="url(#paint1_linear_786_682)"/>
<path d="M18.5133 13.9995C18.5081 13.6033 18.3484 13.2248 18.0682 12.9446C17.788 12.6644 17.4095 12.5047 17.0133 12.4995H10.0133C9.61548 12.4995 9.23395 12.6575 8.95265 12.9389C8.67134 13.2202 8.51331 13.6017 8.51331 13.9995C8.51331 14.3973 8.67134 14.7789 8.95265 15.0602C9.23395 15.3415 9.61548 15.4995 10.0133 15.4995H17.0133C17.4095 15.4943 17.788 15.3346 18.0682 15.0544C18.3484 14.7743 18.5081 14.3957 18.5133 13.9995Z" fill="url(#paint2_linear_786_682)"/>
<path d="M10.0133 18.4995C9.61548 18.4995 9.23395 18.6575 8.95265 18.9389C8.67134 19.2202 8.51331 19.6017 8.51331 19.9995C8.51331 20.3973 8.67134 20.7789 8.95265 21.0602C9.23395 21.3415 9.61548 21.4995 10.0133 21.4995H14.0133C14.4111 21.4995 14.7927 21.3415 15.074 21.0602C15.3553 20.7789 15.5133 20.3973 15.5133 19.9995C15.5133 19.6017 15.3553 19.2202 15.074 18.9389C14.7927 18.6575 14.4111 18.4995 14.0133 18.4995H10.0133Z" fill="url(#paint3_linear_786_682)"/>
<path d="M48.3334 5.17951C48.3548 3.83026 47.8407 2.52752 46.9035 1.55662C45.9663 0.585715 44.6826 0.0258008 43.3334 -0.000488281L5.33341 -0.000488281C3.98425 0.0258008 2.70049 0.585715 1.76333 1.55662C0.826165 2.52752 0.311984 3.83026 0.333407 5.17951V32.9995C0.333407 34.5908 0.965548 36.1169 2.09077 37.2422C3.21598 38.3674 4.74211 38.9995 6.33341 38.9995H20.8334C20.966 38.9995 21.0932 39.0522 21.187 39.146C21.2807 39.2397 21.3334 39.3669 21.3334 39.4995V43.4995C21.3334 43.6321 21.2807 43.7593 21.187 43.8531C21.0932 43.9468 20.966 43.9995 20.8334 43.9995H10.3334C9.80297 43.9995 9.29427 44.2102 8.91919 44.5853C8.54412 44.9604 8.33341 45.4691 8.33341 45.9995C8.33341 46.5299 8.54412 47.0387 8.91919 47.4137C9.29427 47.7888 9.80297 47.9995 10.3334 47.9995H38.3334C38.8638 47.9995 39.3726 47.7888 39.7476 47.4137C40.1227 47.0387 40.3334 46.5299 40.3334 45.9995C40.3334 45.4691 40.1227 44.9604 39.7476 44.5853C39.3726 44.2102 38.8638 43.9995 38.3334 43.9995H25.8334C25.7008 43.9995 25.5736 43.9468 25.4799 43.8531C25.3861 43.7593 25.3334 43.6321 25.3334 43.4995V39.4995C25.3334 39.3669 25.3861 39.2397 25.4799 39.146C25.5736 39.0522 25.7008 38.9995 25.8334 38.9995H42.3334C43.9247 38.9995 45.4508 38.3674 46.576 37.2422C47.7013 36.1169 48.3334 34.5908 48.3334 32.9995V5.17951ZM5.33341 29.9995C5.06819 29.9995 4.81384 29.8942 4.6263 29.7066C4.43876 29.5191 4.33341 29.2647 4.33341 28.9995V5.17951C4.31123 4.8908 4.40378 4.60498 4.59099 4.38407C4.7782 4.16317 5.04496 4.02498 5.33341 3.99951H43.3334C43.6218 4.02498 43.8886 4.16317 44.0758 4.38407C44.263 4.60498 44.3556 4.8908 44.3334 5.17951V28.9995C44.3334 29.2647 44.2281 29.5191 44.0405 29.7066C43.853 29.8942 43.5986 29.9995 43.3334 29.9995H5.33341Z" fill="#BFBFBF"/>
</g>
<defs>
<linearGradient id="paint0_linear_786_682" x1="23.6261" y1="14.4027" x2="41.485" y2="18.0034" gradientUnits="userSpaceOnUse">
<stop stop-color="#FF8F27"/>
<stop offset="1" stop-color="#BC5A00"/>
</linearGradient>
<linearGradient id="paint1_linear_786_682" x1="27.7359" y1="12.0578" x2="38.3545" y2="14.2745" gradientUnits="userSpaceOnUse">
<stop stop-color="#FF8F27"/>
<stop offset="1" stop-color="#BC5A00"/>
</linearGradient>
<linearGradient id="paint2_linear_786_682" x1="9.82221" y1="12.5308" x2="18.2149" y2="15.2699" gradientUnits="userSpaceOnUse">
<stop stop-color="#FF8F27"/>
<stop offset="1" stop-color="#BC5A00"/>
</linearGradient>
<linearGradient id="paint3_linear_786_682" x1="9.42954" y1="18.5308" x2="15.6078" y2="19.9423" gradientUnits="userSpaceOnUse">
<stop stop-color="#FF8F27"/>
<stop offset="1" stop-color="#BC5A00"/>
</linearGradient>
<clipPath id="clip0_786_682">
<rect width="48" height="48" fill="white" transform="translate(0.333374 -0.000488281)"/>
</clipPath>
</defs>
</svg>
