<svg width="49" height="48" viewBox="0 0 49 48" fill="none" xmlns="http://www.w3.org/2000/svg">
<g clip-path="url(#clip0_786_693)">
<path d="M35.25 18.9995C38.0608 18.9988 40.8215 19.7442 43.25 21.1595C43.3219 21.1934 43.4005 21.2109 43.48 21.2109C43.5595 21.2109 43.6381 21.1934 43.71 21.1595C43.7829 21.1274 43.8466 21.0777 43.8955 21.0149C43.9444 20.952 43.9768 20.878 43.99 20.7995C44.1662 19.8767 44.2533 18.939 44.25 17.9995C44.25 7.99951 34.39 -0.000488281 22.25 -0.000488281C10.11 -0.000488281 0.25 7.99951 0.25 17.9995C0.286932 20.2103 0.778284 22.3899 1.6935 24.4027C2.60872 26.4154 3.92824 28.2184 5.57 29.6995L2.25 38.6595C2.1856 38.8413 2.17513 39.0378 2.21986 39.2254C2.26459 39.413 2.36261 39.5837 2.50211 39.7168C2.64161 39.85 2.81664 39.94 3.00611 39.9759C3.19558 40.0119 3.39141 39.9923 3.57 39.9195L15.23 35.0595C16.3462 35.3648 17.4823 35.592 18.63 35.7395C18.7014 35.7509 18.7745 35.7461 18.8437 35.7253C18.913 35.7045 18.9767 35.6684 19.03 35.6195C19.0887 35.5721 19.1343 35.5105 19.1623 35.4404C19.1903 35.3704 19.1999 35.2943 19.19 35.2195V34.9995C19.19 32.8933 19.6058 30.8078 20.4136 28.8627C21.2215 26.9176 22.4054 25.1511 23.8975 23.6645C25.3896 22.178 27.1605 21.0007 29.1086 20.2002C31.0568 19.3996 33.1438 18.9916 35.25 18.9995Z" fill="#BFBFBF"/>
<path d="M35.25 21.9995C32.6788 21.9995 30.1654 22.7619 28.0276 24.1904C25.8898 25.6189 24.2235 27.6492 23.2396 30.0246C22.2556 32.4001 21.9982 35.0139 22.4998 37.5357C23.0014 40.0574 24.2395 42.3738 26.0576 44.1919C27.8757 46.01 30.1921 47.2481 32.7138 47.7497C35.2356 48.2513 37.8495 47.9939 40.2249 47.0099C42.6003 46.026 44.6307 44.3598 46.0591 42.2219C47.4876 40.0841 48.25 37.5707 48.25 34.9995C48.2447 31.5533 46.8734 28.2498 44.4366 25.813C41.9997 23.3761 38.6962 22.0048 35.25 21.9995ZM28.47 35.3595C28.6079 35.218 28.7727 35.1055 28.9548 35.0287C29.1368 34.9519 29.3324 34.9124 29.53 34.9124C29.7276 34.9124 29.9232 34.9519 30.1052 35.0287C30.2873 35.1055 30.4521 35.218 30.59 35.3595L33.59 38.3595L39.39 30.5995C39.5095 30.4419 39.6589 30.3094 39.8296 30.2096C40.0003 30.1097 40.189 30.0444 40.3849 30.0175C40.5809 29.9906 40.7802 30.0025 40.9715 30.0526C41.1628 30.1027 41.3424 30.19 41.5 30.3095C41.6576 30.429 41.7901 30.5784 41.89 30.7491C41.9898 30.9198 42.0551 31.1085 42.082 31.3045C42.1089 31.5004 42.097 31.6997 42.0469 31.891C41.9968 32.0823 41.9095 32.2619 41.79 32.4195L35.99 40.1595C35.732 40.5031 35.4032 40.7872 35.0259 40.9927C34.6486 41.1981 34.2316 41.3202 33.803 41.3505C33.3744 41.3809 32.9444 41.3188 32.5419 41.1685C32.1394 41.0183 31.7738 40.7833 31.47 40.4795L28.47 37.4795C28.3285 37.3416 28.216 37.1768 28.1392 36.9947C28.0624 36.8127 28.0229 36.6171 28.0229 36.4195C28.0229 36.2219 28.0624 36.0263 28.1392 35.8443C28.216 35.6622 28.3285 35.4974 28.47 35.3595Z" fill="url(#paint0_linear_786_693)"/>
</g>
<defs>
<linearGradient id="paint0_linear_786_693" x1="25.6531" y1="22.2703" x2="49.5694" y2="24.612" gradientUnits="userSpaceOnUse">
<stop stop-color="#FF8F27"/>
<stop offset="1" stop-color="#BC5A00"/>
</linearGradient>
<clipPath id="clip0_786_693">
<rect width="48" height="48" fill="white" transform="translate(0.25 -0.000488281)"/>
</clipPath>
</defs>
</svg>
