<svg width="40" height="41" viewBox="0 0 40 41" fill="none" xmlns="http://www.w3.org/2000/svg">
<path d="M38.8073 1.82449C35.9406 -1.05884 29.8739 1.97449 25.1239 5.15783C23.2189 4.38406 21.1801 3.99328 19.1239 4.00783C14.9318 4.01664 10.9139 5.68586 7.9496 8.65015C4.98531 11.6144 3.31609 15.6324 3.30728 19.8245C3.30332 21.8775 3.70548 23.9109 4.49061 25.8078C1.25728 30.5578 -1.69272 36.6078 1.14061 39.5078C1.55207 39.906 2.04118 40.2151 2.57742 40.4158C3.11365 40.6166 3.6855 40.7046 4.25728 40.6745C6.9375 40.4344 9.51818 39.5417 11.7739 38.0745C13.2394 37.2416 14.6582 36.3292 16.0239 35.3412C18.3221 35.8118 20.6964 35.7643 22.9739 35.202C25.2514 34.6397 27.3749 33.5768 29.19 32.0906C31.0051 30.6044 32.466 28.7322 33.4665 26.6104C34.4671 24.4886 34.982 22.1704 34.974 19.8245C34.9773 18.7893 34.8768 17.7563 34.6739 16.7412C39.1573 10.4412 41.5406 4.54116 38.8073 1.82449ZM23.3906 11.1745C23.4732 11.0227 23.5864 10.8898 23.723 10.784C23.8596 10.6782 24.0167 10.6018 24.1843 10.5598C24.3518 10.5177 24.5263 10.5109 24.6967 10.5397C24.8671 10.5685 25.0296 10.6323 25.1741 10.727C25.3186 10.8218 25.4418 10.9455 25.5361 11.0903C25.6303 11.2351 25.6935 11.3979 25.7217 11.5684C25.7499 11.7388 25.7424 11.9133 25.6998 12.0807C25.6571 12.2482 25.5802 12.4049 25.4739 12.5412C23.7 15.2507 21.6441 17.7647 19.3406 20.0412C16.3847 23.0361 13.0176 25.5951 9.34061 27.6412C8.81651 26.9882 8.3587 26.2848 7.97395 25.5412C11.4971 23.5938 14.7195 21.1461 17.5406 18.2745C19.7226 16.109 21.6824 13.7304 23.3906 11.1745ZM6.64061 18.4745C9.00828 17.241 11.1679 15.6438 13.0406 13.7412C13.4073 13.3745 13.7573 12.9912 14.1073 12.6245C14.2115 12.4857 14.3434 12.3701 14.4948 12.2851C14.6461 12.2002 14.8134 12.1476 14.9862 12.1308C15.1589 12.1141 15.3332 12.1335 15.4981 12.1878C15.6629 12.2421 15.8146 12.3301 15.9436 12.4463C16.0725 12.5625 16.1759 12.7042 16.247 12.8625C16.3182 13.0208 16.3556 13.1922 16.3569 13.3657C16.3582 13.5393 16.3233 13.7112 16.2545 13.8705C16.1857 14.0298 16.0845 14.1731 15.9573 14.2912C15.5906 14.7078 15.2073 15.1078 14.8073 15.5078C12.4732 17.9109 9.70122 19.8456 6.64061 21.2078C6.61525 20.7471 6.61525 20.2853 6.64061 19.8245C6.61489 19.3749 6.61489 18.9241 6.64061 18.4745ZM23.9406 24.6912C20.5708 28.1374 16.8443 31.2158 12.8239 33.8745C11.507 34.7689 10.078 35.4862 8.57395 36.0078C5.24061 37.6745 3.75728 37.4078 3.49061 37.1578C3.22395 36.9078 3.20728 34.0078 6.30728 29.1078C7.32491 30.4951 8.56364 31.7057 9.97395 32.6912C14.5016 30.0072 18.6401 26.7154 22.2739 22.9078C26.0579 19.2901 29.3323 15.1746 32.0073 10.6745C31.0172 9.26798 29.8073 8.02993 28.4239 7.00783C33.4239 3.92449 35.9906 3.67449 36.4573 4.19116C36.9239 4.70783 36.6573 6.4245 35.3406 9.19116C34.8255 10.7615 34.0964 12.2533 33.174 13.6245C30.5124 17.6275 27.4341 21.3371 23.9906 24.6912H23.9406Z" fill="#D3D3D3"/>
</svg>
