<svg width="17" height="16" viewBox="0 0 17 16" fill="none" xmlns="http://www.w3.org/2000/svg">
<g clip-path="url(#clip0_838_1024)">
<path d="M2.99996 2.21326C2.21118 2.96079 1.58297 3.86119 1.15365 4.85952C0.724341 5.85786 0.50293 6.93319 0.50293 8.01992C0.50293 9.10665 0.724341 10.182 1.15365 11.1803C1.58297 12.1787 2.21118 13.0791 2.99996 13.8266V2.21326Z" fill="#D3D3D3"/>
<path d="M10 12C10 11.8674 10.0527 11.7403 10.1464 11.6465C10.2402 11.5527 10.3674 11.5 10.5 11.5C10.6326 11.5 10.7598 11.5527 10.8536 11.6465C10.9473 11.7403 11 11.8674 11 12V15.6C11.8407 15.3209 12.6292 14.9042 13.3333 14.3667V10C13.3333 9.86743 13.386 9.74026 13.4798 9.64649C13.5735 9.55272 13.7007 9.50004 13.8333 9.50004C13.9659 9.50004 14.0931 9.55272 14.1869 9.64649C14.2807 9.74026 14.3333 9.86743 14.3333 10V13.4667C15.2519 12.486 15.9087 11.2898 16.2431 9.98832C16.5775 8.68688 16.5786 7.32217 16.2465 6.02016C15.9143 4.71815 15.2596 3.52077 14.3426 2.53853C13.4257 1.55629 12.2761 0.820838 11 0.400041V2.66671C11 2.79932 10.9473 2.92649 10.8536 3.02026C10.7598 3.11403 10.6326 3.16671 10.5 3.16671C10.3674 3.16671 10.2402 3.11403 10.1464 3.02026C10.0527 2.92649 10 2.79932 10 2.66671V0.160041C8.96704 -0.0366778 7.90543 -0.0278269 6.8759 0.186088C5.84636 0.400002 4.8691 0.814784 4 1.40671V14.6667C5.33296 15.5511 6.90043 16.0155 8.5 16C9.00315 15.9977 9.5051 15.9508 10 15.86V12ZM10.5 5.41337C10.9849 5.46073 11.4317 5.69715 11.7436 6.07146C12.0556 6.44577 12.2075 6.92785 12.1667 7.41337C12.2058 7.89852 12.0532 8.37967 11.7416 8.75357C11.43 9.12748 10.9842 9.36436 10.5 9.41337C10.0158 9.36436 9.57002 9.12748 9.25843 8.75357C8.94684 8.37967 8.79422 7.89852 8.83333 7.41337C8.79247 6.92785 8.94444 6.44577 9.25637 6.07146C9.56829 5.69715 10.0151 5.46073 10.5 5.41337Z" fill="#D3D3D3"/>
</g>
<defs>
<clipPath id="clip0_838_1024">
<rect width="16" height="16" fill="white" transform="translate(0.5)"/>
</clipPath>
</defs>
</svg>
