<svg width="28" height="28" viewBox="0 0 28 28" fill="none" xmlns="http://www.w3.org/2000/svg">
<path fill-rule="evenodd" clip-rule="evenodd" d="M10.2084 1.1665H8.45841V9.0415H8.82348C9.24331 8.64915 9.70777 8.30396 10.2084 8.01435V1.1665ZM19.1767 9.0415C17.8215 7.77503 16.0013 6.99984 14.0001 6.99984C13.2927 6.99984 12.608 7.09668 11.9584 7.27784V1.1665H23.3334C25.2665 1.1665 26.8334 2.73351 26.8334 4.6665V9.0415H19.1767ZM17.6313 10.7915C18.6289 11.7471 19.2501 13.0926 19.2501 14.5832C19.2501 17.4827 16.8996 19.8332 14.0001 19.8332C11.1006 19.8332 8.75008 17.4827 8.75008 14.5832C8.75008 13.0926 9.37125 11.7471 10.3689 10.7915C11.3118 9.88819 12.5911 9.33317 14.0001 9.33317C15.4091 9.33317 16.6883 9.88819 17.6313 10.7915ZM7.43126 10.7915C6.78603 11.907 6.41675 13.202 6.41675 14.5832C6.41675 18.7714 9.81192 22.1665 14.0001 22.1665C18.1883 22.1665 21.5834 18.7714 21.5834 14.5832C21.5834 13.202 21.2142 11.907 20.5689 10.7915H26.8334V23.3332C26.8334 25.2662 25.2665 26.8332 23.3334 26.8332H4.66675C2.73376 26.8332 1.16675 25.2662 1.16675 23.3332V10.7915H7.43126ZM6.70841 1.1665V9.0415H4.95841V1.1665H6.70841ZM3.20841 1.48386V9.0415H1.16675V4.6665C1.16675 3.25396 2.00353 2.03686 3.20841 1.48386ZM19.8334 4.08317C19.8334 3.76101 20.0946 3.49984 20.4167 3.49984H22.7501C23.0722 3.49984 23.3334 3.76101 23.3334 4.08317V6.4165C23.3334 6.73867 23.0722 6.99984 22.7501 6.99984H20.4167C20.0946 6.99984 19.8334 6.73867 19.8334 6.4165V4.08317Z" fill="#D3D3D3"/>
</svg>
