<svg width="28" height="28" viewBox="0 0 28 28" fill="none" xmlns="http://www.w3.org/2000/svg">
<path fill-rule="evenodd" clip-rule="evenodd" d="M8.16675 1.16699C6.23376 1.16699 4.66675 2.734 4.66675 4.66699V17.5003C4.66675 22.655 8.84542 26.8337 14.0001 26.8337H19.8334C21.7665 26.8337 23.3334 25.2667 23.3334 23.3337C23.3334 21.4006 21.7665 19.8337 19.8334 19.8337H14.0001C12.7114 19.8337 11.6667 18.789 11.6667 17.5003V14.5837H19.8334C21.7665 14.5837 23.3334 13.0167 23.3334 11.0837C23.3334 9.15067 21.7665 7.58366 19.8334 7.58366H11.6667V4.66699C11.6667 2.734 10.0997 1.16699 8.16675 1.16699Z" fill="url(#paint0_linear_978_1932)"/>
<defs>
<linearGradient id="paint0_linear_978_1932" x1="7.11003" y1="1.43435" x2="24.3578" y2="2.66255" gradientUnits="userSpaceOnUse">
<stop stop-color="#FF8F27"/>
<stop offset="1" stop-color="#BC5A00"/>
</linearGradient>
</defs>
</svg>
