<svg width="28" height="28" viewBox="0 0 28 28" fill="none" xmlns="http://www.w3.org/2000/svg">
<path fill-rule="evenodd" clip-rule="evenodd" d="M10.2084 1.16699H8.45841V9.04199H8.82348C9.24331 8.64964 9.70777 8.30445 10.2084 8.01484V1.16699ZM19.1767 9.04199C17.8215 7.77552 16.0013 7.00033 14.0001 7.00033C13.2927 7.00033 12.608 7.09717 11.9584 7.27833V1.16699H23.3334C25.2665 1.16699 26.8334 2.734 26.8334 4.66699V9.04199H19.1767ZM17.6313 10.792C18.6289 11.7476 19.2501 13.0931 19.2501 14.5837C19.2501 17.4832 16.8996 19.8337 14.0001 19.8337C11.1006 19.8337 8.75008 17.4832 8.75008 14.5837C8.75008 13.0931 9.37125 11.7476 10.3689 10.792C11.3118 9.88868 12.5911 9.33366 14.0001 9.33366C15.4091 9.33366 16.6883 9.88868 17.6313 10.792ZM7.43126 10.792C6.78603 11.9074 6.41675 13.2024 6.41675 14.5837C6.41675 18.7719 9.81192 22.167 14.0001 22.167C18.1883 22.167 21.5834 18.7719 21.5834 14.5837C21.5834 13.2024 21.2142 11.9074 20.5689 10.792H26.8334V23.3337C26.8334 25.2667 25.2665 26.8337 23.3334 26.8337H4.66675C2.73376 26.8337 1.16675 25.2667 1.16675 23.3337V10.792H7.43126ZM6.70841 1.16699V9.04199H4.95841V1.16699H6.70841ZM3.20841 1.48435V9.04199H1.16675V4.66699C1.16675 3.25445 2.00353 2.03735 3.20841 1.48435ZM19.8334 4.08366C19.8334 3.7615 20.0946 3.50033 20.4167 3.50033H22.7501C23.0722 3.50033 23.3334 3.7615 23.3334 4.08366V6.41699C23.3334 6.73916 23.0722 7.00033 22.7501 7.00033H20.4167C20.0946 7.00033 19.8334 6.73916 19.8334 6.41699V4.08366Z" fill="url(#paint0_linear_978_1931)"/>
<defs>
<linearGradient id="paint0_linear_978_1931" x1="4.52626" y1="1.43435" x2="28.1359" y2="3.74603" gradientUnits="userSpaceOnUse">
<stop stop-color="#FF8F27"/>
<stop offset="1" stop-color="#BC5A00"/>
</linearGradient>
</defs>
</svg>
