<svg width="21" height="20" viewBox="0 0 21 20" fill="none" xmlns="http://www.w3.org/2000/svg">
<g clip-path="url(#clip0_786_717)">
<path d="M20.1334 7.2748C20.0464 7.03232 19.8871 6.82239 19.6769 6.67336C19.4668 6.52433 19.216 6.44339 18.9584 6.44146H13.8834C13.7978 6.44143 13.7142 6.41501 13.6441 6.3658C13.574 6.3166 13.5208 6.24699 13.4917 6.16646L11.675 0.999797C11.5804 0.765774 11.4179 0.565375 11.2086 0.424317C10.9992 0.283259 10.7525 0.207977 10.5 0.20813C10.2433 0.209359 9.99322 0.290156 9.78429 0.439397C9.57535 0.588637 9.41782 0.798981 9.33338 1.04146L7.50838 6.18313C7.47927 6.26366 7.42605 6.33326 7.35597 6.38247C7.28589 6.43167 7.20235 6.45809 7.11672 6.45813H2.04172C1.78382 6.45886 1.53247 6.53933 1.32211 6.68852C1.11175 6.83771 0.95268 7.04832 0.866716 7.29146C0.784049 7.53182 0.775606 7.79149 0.842484 8.03671C0.909362 8.28193 1.04847 8.50136 1.24172 8.66646L5.55838 12.2498C5.62324 12.3027 5.67065 12.374 5.69444 12.4542C5.71822 12.5345 5.71727 12.6201 5.69172 12.6998L3.87505 18.1415C3.78949 18.3934 3.78657 18.6661 3.8667 18.9198C3.94684 19.1736 4.10585 19.3951 4.3206 19.5522C4.53535 19.7093 4.79464 19.7938 5.06072 19.7934C5.32681 19.7929 5.58582 19.7076 5.80005 19.5498L10.25 16.2831C10.3209 16.2297 10.4072 16.2008 10.4959 16.2008C10.5846 16.2008 10.6709 16.2297 10.7417 16.2831L15.2 19.5498C15.4126 19.7267 15.6779 19.8281 15.9542 19.8381C16.2306 19.8481 16.5025 19.7662 16.7273 19.6052C16.9521 19.4442 17.1173 19.2132 17.1968 18.9483C17.2763 18.6834 17.2657 18.3997 17.1667 18.1415L15.35 12.6998C15.3245 12.6201 15.3235 12.5345 15.3473 12.4542C15.3711 12.374 15.4185 12.3027 15.4834 12.2498L19.8084 8.65813C19.9956 8.48714 20.1268 8.26358 20.1848 8.01673C20.2428 7.76988 20.2249 7.51127 20.1334 7.2748Z" fill="url(#paint0_linear_786_717)"/>
</g>
<defs>
<linearGradient id="paint0_linear_786_717" x1="3.33978" y1="0.412618" x2="21.2073" y2="2.14332" gradientUnits="userSpaceOnUse">
<stop stop-color="#FF8F27"/>
<stop offset="1" stop-color="#BC5A00"/>
</linearGradient>
<clipPath id="clip0_786_717">
<rect width="20" height="20" fill="white" transform="translate(0.5 -0.000488281)"/>
</clipPath>
</defs>
</svg>
