<svg width="17" height="16" viewBox="0 0 17 16" fill="none" xmlns="http://www.w3.org/2000/svg">
<g clip-path="url(#clip0_838_1030)">
<path d="M8.5 0C6.91775 0 5.37104 0.469192 4.05544 1.34824C2.73985 2.22729 1.71447 3.47672 1.10897 4.93853C0.503466 6.40034 0.34504 8.00887 0.653721 9.56072C0.962403 11.1126 1.72433 12.538 2.84315 13.6569C3.96197 14.7757 5.38743 15.5376 6.93928 15.8463C8.49113 16.155 10.0997 15.9965 11.5615 15.391C13.0233 14.7855 14.2727 13.7602 15.1518 12.4446C16.0308 11.129 16.5 9.58225 16.5 8C16.5 5.87827 15.6571 3.84344 14.1569 2.34315C12.6566 0.842855 10.6217 0 8.5 0ZM5.66667 1.83333C5.79852 1.83333 5.92742 1.87243 6.03705 1.94569C6.14668 2.01894 6.23213 2.12306 6.28259 2.24488C6.33305 2.36669 6.34625 2.50074 6.32053 2.63006C6.2948 2.75938 6.23131 2.87817 6.13807 2.9714C6.04484 3.06464 5.92605 3.12813 5.79673 3.15386C5.66741 3.17958 5.53337 3.16638 5.41155 3.11592C5.28973 3.06546 5.18561 2.98001 5.11236 2.87038C5.0391 2.76075 5 2.63185 5 2.5C5 2.32319 5.07024 2.15362 5.19527 2.0286C5.32029 1.90357 5.48986 1.83333 5.66667 1.83333ZM2.66667 11.1667C2.53482 11.1667 2.40592 11.1276 2.29629 11.0543C2.18666 10.9811 2.10121 10.8769 2.05075 10.7551C2.00029 10.6333 1.98709 10.4993 2.01281 10.3699C2.03854 10.2406 2.10203 10.1218 2.19527 10.0286C2.2885 9.93536 2.40729 9.87187 2.53661 9.84614C2.66593 9.82042 2.79998 9.83362 2.92179 9.88408C3.04361 9.93454 3.14773 10.02 3.22098 10.1296C3.29424 10.2393 3.33334 10.3681 3.33334 10.5C3.33334 10.6768 3.2631 10.8464 3.13807 10.9714C3.01305 11.0964 2.84348 11.1667 2.66667 11.1667ZM2.66667 6.5C2.53482 6.5 2.40592 6.4609 2.29629 6.38765C2.18666 6.31439 2.10121 6.21027 2.05075 6.08846C2.00029 5.96664 1.98709 5.83259 2.01281 5.70327C2.03854 5.57395 2.10203 5.45516 2.19527 5.36193C2.2885 5.26869 2.40729 5.2052 2.53661 5.17948C2.66593 5.15375 2.79998 5.16695 2.92179 5.21741C3.04361 5.26787 3.14773 5.35332 3.22098 5.46295C3.29424 5.57259 3.33334 5.70148 3.33334 5.83333C3.33334 6.01014 3.2631 6.17971 3.13807 6.30474C3.01305 6.42976 2.84348 6.5 2.66667 6.5ZM5.66667 13.8333C5.53482 13.8333 5.40592 13.7942 5.29629 13.721C5.18666 13.6477 5.10121 13.5436 5.05075 13.4218C5.00029 13.3 4.98709 13.1659 5.01281 13.0366C5.03854 12.9073 5.10203 12.7885 5.19527 12.6953C5.2885 12.602 5.40729 12.5385 5.53661 12.5128C5.66593 12.4871 5.79998 12.5003 5.92179 12.5507C6.04361 12.6012 6.14773 12.6867 6.22098 12.7963C6.29424 12.9059 6.33334 13.0348 6.33334 13.1667C6.33334 13.3435 6.2631 13.513 6.13807 13.6381C6.01305 13.7631 5.84348 13.8333 5.66667 13.8333ZM6.33334 10.1667C6.20148 10.1667 6.07259 10.1276 5.96296 10.0543C5.85332 9.98106 5.76788 9.87694 5.71742 9.75512C5.66696 9.6333 5.65376 9.49926 5.67948 9.36994C5.7052 9.24062 5.7687 9.12183 5.86193 9.02859C5.95517 8.93536 6.07396 8.87187 6.20328 8.84614C6.3326 8.82042 6.46664 8.83362 6.58846 8.88408C6.71028 8.93454 6.8144 9.01999 6.88765 9.12962C6.9609 9.23925 7 9.36814 7 9.5C7 9.67681 6.92977 9.84638 6.80474 9.9714C6.67972 10.0964 6.51015 10.1667 6.33334 10.1667ZM8.83334 15.1667C8.70148 15.1667 8.57259 15.1276 8.46296 15.0543C8.35332 14.9811 8.26788 14.8769 8.21742 14.7551C8.16696 14.6333 8.15376 14.4993 8.17948 14.3699C8.2052 14.2406 8.2687 14.1218 8.36193 14.0286C8.45517 13.9354 8.57396 13.8719 8.70328 13.8461C8.8326 13.8204 8.96664 13.8336 9.08846 13.8841C9.21028 13.9345 9.3144 14.02 9.38765 14.1296C9.46091 14.2393 9.5 14.3681 9.5 14.5C9.5 14.6768 9.42977 14.8464 9.30474 14.9714C9.17972 15.0964 9.01015 15.1667 8.83334 15.1667ZM9.33334 12.5C9.20148 12.5 9.07259 12.4609 8.96296 12.3876C8.85332 12.3144 8.76788 12.2103 8.71742 12.0885C8.66696 11.9666 8.65376 11.8326 8.67948 11.7033C8.7052 11.574 8.7687 11.4552 8.86193 11.3619C8.95517 11.2687 9.07396 11.2052 9.20328 11.1795C9.3326 11.1538 9.46664 11.167 9.58846 11.2174C9.71028 11.2679 9.8144 11.3533 9.88765 11.463C9.96091 11.5726 10 11.7015 10 11.8333C10 12.0101 9.92977 12.1797 9.80474 12.3047C9.67972 12.4298 9.51015 12.5 9.33334 12.5ZM11.6667 9.5C11.6667 9.36814 11.7058 9.23925 11.779 9.12962C11.8523 9.01999 11.9564 8.93454 12.0782 8.88408C12.2 8.83362 12.3341 8.82042 12.4634 8.84614C12.5927 8.87187 12.7115 8.93536 12.8047 9.02859C12.898 9.12183 12.9615 9.24062 12.9872 9.36994C13.0129 9.49926 12.9997 9.6333 12.9493 9.75512C12.8988 9.87694 12.8134 9.98106 12.7037 10.0543C12.5941 10.1276 12.4652 10.1667 12.3333 10.1667C12.1565 10.1667 11.987 10.0964 11.8619 9.9714C11.7369 9.84638 11.6667 9.67681 11.6667 9.5ZM12.6667 13.1667C12.5348 13.1667 12.4059 13.1276 12.2963 13.0543C12.1867 12.9811 12.1012 12.8769 12.0508 12.7551C12.0003 12.6333 11.9871 12.4993 12.0128 12.3699C12.0385 12.2406 12.102 12.1218 12.1953 12.0286C12.2885 11.9354 12.4073 11.8719 12.5366 11.8461C12.6659 11.8204 12.8 11.8336 12.9218 11.8841C13.0436 11.9345 13.1477 12.02 13.221 12.1296C13.2942 12.2393 13.3333 12.3681 13.3333 12.5C13.3333 12.6768 13.2631 12.8464 13.1381 12.9714C13.0131 13.0964 12.8435 13.1667 12.6667 13.1667ZM14 5.83333C13.8681 5.83333 13.7393 5.79423 13.6296 5.72098C13.52 5.64773 13.4345 5.54361 13.3841 5.42179C13.3336 5.29997 13.3204 5.16593 13.3461 5.03661C13.3719 4.90729 13.4354 4.7885 13.5286 4.69526C13.6218 4.60203 13.7406 4.53853 13.8699 4.51281C13.9993 4.48709 14.1333 4.50029 14.2551 4.55075C14.3769 4.6012 14.4811 4.68665 14.5543 4.79629C14.6276 4.90592 14.6667 5.03481 14.6667 5.16667C14.6667 5.34348 14.5964 5.51305 14.4714 5.63807C14.3464 5.76309 14.1768 5.83333 14 5.83333ZM15 9.16667C14.8681 9.16667 14.7393 9.12757 14.6296 9.05431C14.52 8.98106 14.4345 8.87694 14.3841 8.75512C14.3336 8.6333 14.3204 8.49926 14.3461 8.36994C14.3719 8.24062 14.4354 8.12183 14.5286 8.02859C14.6218 7.93536 14.7406 7.87187 14.8699 7.84614C14.9993 7.82042 15.1333 7.83362 15.2551 7.88408C15.3769 7.93454 15.4811 8.01999 15.5543 8.12962C15.6276 8.23925 15.6667 8.36814 15.6667 8.5C15.6667 8.67681 15.5964 8.84638 15.4714 8.9714C15.3464 9.09643 15.1768 9.16667 15 9.16667Z" fill="#D3D3D3"/>
</g>
<defs>
<clipPath id="clip0_838_1030">
<rect width="16" height="16" fill="white" transform="translate(0.5)"/>
</clipPath>
</defs>
</svg>
