<svg width="115" height="48" viewBox="0 0 115 48" fill="none" xmlns="http://www.w3.org/2000/svg">
<path fill-rule="evenodd" clip-rule="evenodd" d="M67.6792 0.365604C79.4914 -1.37804 91.3608 4.24684 101.679 11.794C101.862 11.928 101.902 12.1851 101.768 12.3683C101.634 12.5515 101.377 12.5914 101.194 12.4574C90.9266 4.94758 79.2836 -0.516526 67.7992 1.17872C56.3456 2.86944 44.8952 11.7094 35.063 33.1734C34.9684 33.3798 34.7245 33.4705 34.5182 33.3759C34.3118 33.2814 34.2212 33.0375 34.3157 32.8311C44.2059 11.2406 55.8363 2.11378 67.6792 0.365604Z" fill="url(#paint0_linear_17_114)"/>
<path d="M4.70688 25.76C3.91783 25.76 3.18795 25.5627 2.51726 25.1682C1.84656 24.7737 1.31395 24.2411 0.919427 23.5704C0.5249 22.8997 0.327637 22.1698 0.327637 21.3808V19.3983H4.91401V21.144H16.9865V17.4158H4.70688C3.91783 17.4158 3.18795 17.2185 2.51726 16.824C1.84656 16.4294 1.31395 15.9067 0.919427 15.2557C0.5249 14.585 0.327637 13.8453 0.327637 13.0365V8.83481C0.327637 8.02603 0.5249 7.29616 0.919427 6.64519C1.31395 5.97449 1.84656 5.44188 2.51726 5.04736C3.18795 4.65283 3.91783 4.45557 4.70688 4.45557H17.2528C18.0419 4.45557 18.7619 4.65283 19.4129 5.04736C20.0836 5.44188 20.6162 5.97449 21.0107 6.64519C21.4249 7.29616 21.6321 8.02603 21.6321 8.83481V10.8173H16.9865V9.07153H4.91401V12.7998H17.2528C18.0419 12.7998 18.7619 12.9971 19.4129 13.3916C20.0836 13.7861 20.6162 14.3187 21.0107 14.9894C21.4249 15.6404 21.6321 16.3703 21.6321 17.179V21.3808C21.6321 22.1698 21.4249 22.8997 21.0107 23.5704C20.6162 24.2411 20.0836 24.7737 19.4129 25.1682C18.7619 25.5627 18.0419 25.76 17.2528 25.76H4.70688Z" fill="#D3D3D3"/>
<path d="M24.8906 25.76V4.48516H41.7862C42.595 4.48516 43.3249 4.68242 43.9758 5.07694C44.6465 5.47147 45.1791 6.00408 45.5737 6.67478C45.9879 7.34547 46.195 8.07535 46.195 8.8644V14.368C46.195 15.1571 45.9879 15.887 45.5737 16.5577C45.1791 17.2284 44.6465 17.761 43.9758 18.1555C43.3249 18.55 42.595 18.7473 41.7862 18.7473L29.477 18.7769V25.76H24.8906ZM29.477 14.1313H41.5495V9.07153H29.477V14.1313Z" fill="#D3D3D3"/>
<path d="M59.57 25.76V20.4635H46.8169V16.4097L60.0434 4.45557H64.0971V15.9067H66.9377V20.4635H64.0971V25.76H59.57ZM54.1847 15.9067H59.57V11.5275L54.1847 15.9067Z" fill="#D3D3D3"/>
<path d="M74.2898 25.76C73.481 25.76 72.7413 25.5627 72.0706 25.1682C71.4196 24.7737 70.8969 24.2509 70.5023 23.6C70.1078 22.9293 69.9106 22.1895 69.9106 21.3808V8.83481C69.9106 8.02603 70.1078 7.29616 70.5023 6.64519C70.8969 5.97449 71.4196 5.44188 72.0706 5.04736C72.7413 4.65283 73.481 4.45557 74.2898 4.45557H91.1558V9.07153H75.4734C75.1578 9.07153 74.9112 9.15043 74.7336 9.30824C74.5758 9.46605 74.4969 9.71263 74.4969 10.048V20.1676C74.4969 20.4832 74.5758 20.7298 74.7336 20.9073C74.9112 21.0651 75.1578 21.144 75.4734 21.144H91.1558V25.76H74.2898Z" fill="#D3D3D3"/>
<path d="M94.3002 25.76V4.45557H113.977V9.07153H98.9457V12.7998H111.048V17.4158H98.9457V21.144H113.977V25.76H94.3002Z" fill="#D3D3D3"/>
<path d="M72.6514 47.9945L68.0158 42.4711H70.1067L74.7622 47.9747V47.9945H72.6514ZM60.6578 47.9945V33.8112H72.4936C72.9276 33.8112 73.3221 33.923 73.6772 34.1466C74.0454 34.357 74.3348 34.6397 74.5452 34.9948C74.7556 35.3499 74.8608 35.7444 74.8608 36.1784V40.3406C74.8608 40.7746 74.7556 41.1692 74.5452 41.5242C74.3348 41.8793 74.0454 42.1686 73.6772 42.3922C73.3221 42.6026 72.9276 42.7078 72.4936 42.7078H62.2557V47.9945H60.6578ZM63.025 41.0902H72.4936C72.704 41.0902 72.8816 41.0179 73.0262 40.8733C73.1841 40.7286 73.263 40.5511 73.263 40.3406V36.1784C73.263 35.968 73.1841 35.7904 73.0262 35.6458C72.8816 35.488 72.704 35.4091 72.4936 35.4091H63.025C62.8146 35.4091 62.6305 35.488 62.4727 35.6458C62.328 35.7904 62.2557 35.968 62.2557 36.1784V40.3406C62.2557 40.5511 62.328 40.7286 62.4727 40.8733C62.6305 41.0179 62.8146 41.0902 63.025 41.0902Z" fill="#D3D3D3"/>
<path d="M80.1513 47.9945V35.6063L77.9617 38.2299H75.851L79.5792 33.7915H81.7886V47.9945H80.1513Z" fill="#D3D3D3"/>
<path d="M84.681 47.9945V33.7915H96.5168C96.9507 33.7915 97.3453 33.8967 97.7003 34.1071C98.0686 34.3175 98.3579 34.6069 98.5683 34.9751C98.7787 35.3302 98.8839 35.7247 98.8839 36.1587V45.6273C98.8839 46.0613 98.7787 46.4624 98.5683 46.8306C98.3579 47.1857 98.0686 47.4684 97.7003 47.6788C97.3453 47.8893 96.9507 47.9945 96.5168 47.9945H84.681ZM87.0481 46.3966H96.5168C96.7272 46.3966 96.9047 46.3243 97.0494 46.1796C97.2072 46.0218 97.2861 45.8377 97.2861 45.6273V36.1587C97.2861 35.9482 97.2072 35.7707 97.0494 35.6261C96.9047 35.4682 96.7272 35.3893 96.5168 35.3893H87.0481C86.8377 35.3893 86.6536 35.4682 86.4958 35.6261C86.3511 35.7707 86.2788 35.9482 86.2788 36.1587V45.6273C86.2788 45.8377 86.3511 46.0218 86.4958 46.1796C86.6536 46.3243 86.8377 46.3966 87.0481 46.3966Z" fill="#D3D3D3"/>
<path d="M101.132 47.9945V33.7915H114.093V35.3893H102.73V40.0842H111.864V41.7018H102.73V46.3966H114.093V47.9945H101.132Z" fill="#D3D3D3"/>
<defs>
<linearGradient id="paint0_linear_17_114" x1="57.9165" y1="-7.5801" x2="103.046" y2="16.3504" gradientUnits="userSpaceOnUse">
<stop stop-color="#FF8F27"/>
<stop offset="1" stop-color="#BC5A00"/>
</linearGradient>
</defs>
</svg>
