<svg width="32" height="32" viewBox="0 0 32 32" fill="none" xmlns="http://www.w3.org/2000/svg">
<path d="M30 3.3335H2.00002C1.26364 3.3335 0.666687 3.93045 0.666687 4.66683V6.00016C0.666687 6.73654 1.26364 7.3335 2.00002 7.3335H30C30.7364 7.3335 31.3334 6.73654 31.3334 6.00016V4.66683C31.3334 3.93045 30.7364 3.3335 30 3.3335Z" fill="#D3D3D3"/>
<path d="M30 14H1.99996C1.26358 14 0.666626 14.597 0.666626 15.3333V16.6667C0.666626 17.403 1.26358 18 1.99996 18H30C30.7363 18 31.3333 17.403 31.3333 16.6667V15.3333C31.3333 14.597 30.7363 14 30 14Z" fill="#D3D3D3"/>
<path d="M30 24.6667H1.99996C1.26358 24.6667 0.666626 25.2637 0.666626 26.0001V27.3334C0.666626 28.0698 1.26358 28.6667 1.99996 28.6667H30C30.7363 28.6667 31.3333 28.0698 31.3333 27.3334V26.0001C31.3333 25.2637 30.7363 24.6667 30 24.6667Z" fill="#D3D3D3"/>
</svg>
